<?xml version="1.0" encoding="UTF-8"?>
<svg xmlns="http://www.w3.org/2000/svg" xmlns:xlink="http://www.w3.org/1999/xlink" version="1.1" viewbox="0 0 154 60">
  <defs>
    <style>
      .cls-1 {
        fill: url(#linear-gradient-8);
      }

      .cls-2 {
        fill: url(#linear-gradient-7);
      }

      .cls-3 {
        fill: url(#linear-gradient-5);
      }

      .cls-4 {
        fill: url(#linear-gradient-6);
      }

      .cls-5 {
        fill: url(#linear-gradient-9);
      }

      .cls-6 {
        fill: url(#linear-gradient-4);
      }

      .cls-7 {
        fill: url(#linear-gradient-3);
      }

      .cls-8 {
        fill: url(#linear-gradient-2);
      }

      .cls-9 {
        fill: url(#linear-gradient);
      }

      .cls-10 {
        fill: #1c4c82;
      }

      .cls-11 {
        fill: url(#linear-gradient-10);
      }

      .cls-12 {
        fill: url(#linear-gradient-11);
      }

      .cls-13 {
        fill: url(#linear-gradient-12);
      }

      .cls-14 {
        fill: url(#linear-gradient-13);
      }

      .cls-15 {
        fill: url(#linear-gradient-19);
      }

      .cls-16 {
        fill: url(#linear-gradient-14);
      }

      .cls-17 {
        fill: url(#linear-gradient-21);
      }

      .cls-18 {
        fill: url(#linear-gradient-20);
      }

      .cls-19 {
        fill: url(#linear-gradient-22);
      }

      .cls-20 {
        fill: url(#linear-gradient-23);
      }

      .cls-21 {
        fill: url(#linear-gradient-28);
      }

      .cls-22 {
        fill: url(#linear-gradient-25);
      }

      .cls-23 {
        fill: url(#linear-gradient-32);
      }

      .cls-24 {
        fill: url(#linear-gradient-31);
      }

      .cls-25 {
        fill: url(#linear-gradient-33);
      }

      .cls-26 {
        fill: url(#linear-gradient-30);
      }

      .cls-27 {
        fill: url(#linear-gradient-15);
      }

      .cls-28 {
        fill: url(#linear-gradient-16);
      }

      .cls-29 {
        fill: url(#linear-gradient-17);
      }

      .cls-30 {
        fill: url(#linear-gradient-18);
      }

      .cls-31 {
        fill: url(#linear-gradient-35);
      }

      .cls-32 {
        fill: url(#linear-gradient-34);
      }

      .cls-33 {
        fill: url(#linear-gradient-36);
      }

      .cls-34 {
        fill: url(#linear-gradient-27);
      }

      .cls-35 {
        fill: url(#linear-gradient-24);
      }

      .cls-36 {
        fill: url(#linear-gradient-26);
      }

      .cls-37 {
        fill: url(#linear-gradient-29);
      }

      .cls-38 {
        opacity: 0;
      }

      .cls-39 {
        fill: #1c4c81;
      }
    </style>
    <linearGradient id="linear-gradient" x1="14.5" y1="48.8" x2="23.5" y2="48.8" gradientTransform="translate(0 62) scale(1 -1)" gradientUnits="userSpaceOnUse">
      <stop offset="0" stop-color="gray"/>
      <stop offset="1" stop-color="#1a1a1a"/>
    </linearGradient>
    <linearGradient id="linear-gradient-2" x1="24" y1="48.4" x2="30.2" y2="48.4" gradientTransform="translate(0 62) scale(1 -1)" gradientUnits="userSpaceOnUse">
      <stop offset="0" stop-color="gray"/>
      <stop offset="1" stop-color="#1a1a1a"/>
    </linearGradient>
    <linearGradient id="linear-gradient-3" x1="30.4" y1="48.4" x2="37" y2="48.4" gradientTransform="translate(0 62) scale(1 -1)" gradientUnits="userSpaceOnUse">
      <stop offset="0" stop-color="gray"/>
      <stop offset="1" stop-color="#1a1a1a"/>
    </linearGradient>
    <linearGradient id="linear-gradient-4" x1="37.6" y1="50.2" x2="41.2" y2="50.2" gradientTransform="translate(0 62) scale(1 -1)" gradientUnits="userSpaceOnUse">
      <stop offset="0" stop-color="gray"/>
      <stop offset="1" stop-color="#1a1a1a"/>
    </linearGradient>
    <linearGradient id="linear-gradient-5" x1="41.4" y1="48.4" x2="44.3" y2="48.4" gradientTransform="translate(0 62) scale(1 -1)" gradientUnits="userSpaceOnUse">
      <stop offset="0" stop-color="gray"/>
      <stop offset="1" stop-color="#1a1a1a"/>
    </linearGradient>
    <linearGradient id="linear-gradient-6" x1="43.1" y1="54.2" x2="44.7" y2="54.2" gradientTransform="translate(0 62) scale(1 -1)" gradientUnits="userSpaceOnUse">
      <stop offset="0" stop-color="gray"/>
      <stop offset="1" stop-color="#1a1a1a"/>
    </linearGradient>
    <linearGradient id="linear-gradient-7" x1="44.9" y1="47.7" x2="54.7" y2="47.7" gradientTransform="translate(0 62) scale(1 -1)" gradientUnits="userSpaceOnUse">
      <stop offset="0" stop-color="gray"/>
      <stop offset="1" stop-color="#1a1a1a"/>
    </linearGradient>
    <linearGradient id="linear-gradient-8" x1="57.9" y1="50.1" x2="63.5" y2="50.1" gradientTransform="translate(0 62) scale(1 -1)" gradientUnits="userSpaceOnUse">
      <stop offset="0" stop-color="gray"/>
      <stop offset="1" stop-color="#1a1a1a"/>
    </linearGradient>
    <linearGradient id="linear-gradient-9" x1="62.4" y1="48.4" x2="67.6" y2="48.4" gradientTransform="translate(0 62) scale(1 -1)" gradientUnits="userSpaceOnUse">
      <stop offset="0" stop-color="gray"/>
      <stop offset="1" stop-color="#1a1a1a"/>
    </linearGradient>
    <linearGradient id="linear-gradient-10" x1="71.9" y1="50" x2="80.9" y2="50" gradientTransform="translate(0 62) scale(1 -1)" gradientUnits="userSpaceOnUse">
      <stop offset="0" stop-color="gray"/>
      <stop offset="1" stop-color="#1a1a1a"/>
    </linearGradient>
    <linearGradient id="linear-gradient-11" x1="81.3" y1="48.4" x2="87.6" y2="48.4" gradientTransform="translate(0 62) scale(1 -1)" gradientUnits="userSpaceOnUse">
      <stop offset="0" stop-color="gray"/>
      <stop offset="1" stop-color="#1a1a1a"/>
    </linearGradient>
    <linearGradient id="linear-gradient-12" x1="88.2" y1="48.5" x2="93.5" y2="48.5" gradientTransform="translate(0 62) scale(1 -1)" gradientUnits="userSpaceOnUse">
      <stop offset="0" stop-color="gray"/>
      <stop offset="1" stop-color="#1a1a1a"/>
    </linearGradient>
    <linearGradient id="linear-gradient-13" x1="96.2" y1="50" x2="104.7" y2="50" gradientTransform="translate(0 62) scale(1 -1)" gradientUnits="userSpaceOnUse">
      <stop offset="0" stop-color="gray"/>
      <stop offset="1" stop-color="#1a1a1a"/>
    </linearGradient>
    <linearGradient id="linear-gradient-14" x1="105" y1="48.5" x2="110.4" y2="48.5" gradientTransform="translate(0 62) scale(1 -1)" gradientUnits="userSpaceOnUse">
      <stop offset="0" stop-color="gray"/>
      <stop offset="1" stop-color="#1a1a1a"/>
    </linearGradient>
    <linearGradient id="linear-gradient-15" x1="112.1" y1="54.2" x2="113.8" y2="54.2" gradientTransform="translate(0 62) scale(1 -1)" gradientUnits="userSpaceOnUse">
      <stop offset="0" stop-color="gray"/>
      <stop offset="1" stop-color="#1a1a1a"/>
    </linearGradient>
    <linearGradient id="linear-gradient-16" x1="110.5" y1="48.4" x2="113.3" y2="48.4" gradientTransform="translate(0 62) scale(1 -1)" gradientUnits="userSpaceOnUse">
      <stop offset="0" stop-color="gray"/>
      <stop offset="1" stop-color="#1a1a1a"/>
    </linearGradient>
    <linearGradient id="linear-gradient-17" x1="113.7" y1="48.4" x2="120.1" y2="48.4" gradientTransform="translate(0 62) scale(1 -1)" gradientUnits="userSpaceOnUse">
      <stop offset="0" stop-color="gray"/>
      <stop offset="1" stop-color="#1a1a1a"/>
    </linearGradient>
    <linearGradient id="linear-gradient-18" x1="120.8" y1="48.5" x2="126.2" y2="48.5" gradientTransform="translate(0 62) scale(1 -1)" gradientUnits="userSpaceOnUse">
      <stop offset="0" stop-color="gray"/>
      <stop offset="1" stop-color="#1a1a1a"/>
    </linearGradient>
    <linearGradient id="linear-gradient-19" x1="128" y1="54.2" x2="129.6" y2="54.2" gradientTransform="translate(0 62) scale(1 -1)" gradientUnits="userSpaceOnUse">
      <stop offset="0" stop-color="gray"/>
      <stop offset="1" stop-color="#1a1a1a"/>
    </linearGradient>
    <linearGradient id="linear-gradient-20" x1="126.3" y1="48.4" x2="129.2" y2="48.4" gradientTransform="translate(0 62) scale(1 -1)" gradientUnits="userSpaceOnUse">
      <stop offset="0" stop-color="gray"/>
      <stop offset="1" stop-color="#1a1a1a"/>
    </linearGradient>
    <linearGradient id="linear-gradient-21" x1="129.8" y1="47.7" x2="139.6" y2="47.7" gradientTransform="translate(0 62) scale(1 -1)" gradientUnits="userSpaceOnUse">
      <stop offset="0" stop-color="gray"/>
      <stop offset="1" stop-color="#1a1a1a"/>
    </linearGradient>
    <linearGradient id="linear-gradient-22" x1="90.4" y1="9.6" x2="94.4" y2="25.7" gradientTransform="translate(0 62) scale(1 -1)" gradientUnits="userSpaceOnUse">
      <stop offset="0" stop-color="#0d72b9"/>
      <stop offset="1" stop-color="#272361"/>
    </linearGradient>
    <linearGradient id="linear-gradient-23" x1="110" y1="22.9" x2="110.7" y2="22.9" gradientTransform="translate(0 62) scale(1 -1)" gradientUnits="userSpaceOnUse">
      <stop offset="0" stop-color="#0d72b9"/>
      <stop offset="1" stop-color="#272361"/>
    </linearGradient>
    <linearGradient id="linear-gradient-24" x1="123.2" y1="16.1" x2="115.3" y2="15.5" gradientTransform="translate(0 62) scale(1 -1)" gradientUnits="userSpaceOnUse">
      <stop offset="0" stop-color="#e5e5e4"/>
      <stop offset="1" stop-color="#2c2c2d"/>
    </linearGradient>
    <linearGradient id="linear-gradient-25" x1="-1668.5" y1="1097.1" x2="-1652.8" y2="1097.3" gradientTransform="translate(-1514.4 -1051) rotate(-180) scale(1 -1)" gradientUnits="userSpaceOnUse">
      <stop offset="0" stop-color="#0d72b9"/>
      <stop offset="1" stop-color="#272361"/>
    </linearGradient>
    <linearGradient id="linear-gradient-26" x1="-1643.9" y1="1097.6" x2="-1665.5" y2="1077" gradientTransform="translate(-1514.4 -1051) rotate(-180) scale(1 -1)" gradientUnits="userSpaceOnUse">
      <stop offset="0" stop-color="#0d72b9"/>
      <stop offset="1" stop-color="#272361"/>
    </linearGradient>
    <linearGradient id="linear-gradient-27" x1="111.4" y1="20.9" x2="124.2" y2="21.8" gradientTransform="translate(0 62) scale(1 -1)" gradientUnits="userSpaceOnUse">
      <stop offset="0" stop-color="#b3b2b3"/>
      <stop offset="1" stop-color="#2c2c2d"/>
    </linearGradient>
    <linearGradient id="linear-gradient-28" x1="96.5" y1="18.6" x2="110.8" y2="25.9" gradientTransform="translate(0 62) scale(1 -1)" gradientUnits="userSpaceOnUse">
      <stop offset="0" stop-color="#0d72b9"/>
      <stop offset="1" stop-color="#272361"/>
    </linearGradient>
    <linearGradient id="linear-gradient-29" x1="5.6" x2="9.6" y2="25.7" xlink:href="#linear-gradient-22"/>
    <linearGradient id="linear-gradient-30" x1="25.1" x2="25.8" xlink:href="#linear-gradient-23"/>
    <linearGradient id="linear-gradient-31" x1="38.4" y1="16.1" x2="30.5" y2="15.5" xlink:href="#linear-gradient-24"/>
    <linearGradient id="linear-gradient-32" x1="-1583.6" y1="1097.1" x2="-1567.9" y2="1097.3" xlink:href="#linear-gradient-25"/>
    <linearGradient id="linear-gradient-33" x1="-1559.1" x2="-1580.7" y2="1077" xlink:href="#linear-gradient-26"/>
    <linearGradient id="linear-gradient-34" x1="26.5" y1="20.9" x2="39.3" y2="21.8" xlink:href="#linear-gradient-27"/>
    <linearGradient id="linear-gradient-35" x1="11.6" x2="25.9" y2="25.9" xlink:href="#linear-gradient-28"/>
    <linearGradient id="linear-gradient-36" x1="30.6" y1="21.5" x2="34.5" y2="21.5" gradientTransform="translate(0 62) scale(1 -1)" gradientUnits="userSpaceOnUse">
      <stop offset="0" stop-color="gray"/>
      <stop offset="1" stop-color="#1a1a1a"/>
    </linearGradient>
  </defs>
  <!-- Generator: Adobe Illustrator 28.6.0, SVG Export Plug-In . SVG Version: 1.2.0 Build 709)  -->
  <g>
    <g id="Layer_1">
      <g>
        <path class="cls-9" d="M20.1,16.5c2.1-1.3,3.4-3.7,3.4-6.1s-1.4-3.7-3.3-3.7-2.4.6-3.5,1.7c-1.4,1.4-2.2,3.2-2.2,5s.4,2.4,1.2,3c.3.3.6.4,1.1.6-1.1,1.1-1.2,1.2-2.2,1.9h-.1c0,0,.3.5.3.5h.1c.5-.4,1-.5,1.5-.5s.6,0,1.2.3c.8.3,1.6.4,2.1.4.8,0,1.8-.4,2.5-1,.3-.3.5-.5.9-1h0c0-.1-.4-.4-.4-.4h0c-.7.9-1.3,1.2-2.2,1.2s-.9,0-1.7-.3c-.8-.2-1.3-.3-1.6-.3h0l.5-.6c1.1,0,1.6-.2,2.3-.7h0ZM20.2,7.5c1,0,1.6.8,1.6,2.2s-.6,3.7-1.4,5c-.7,1.1-1.5,1.7-2.5,1.7s-1.6-.9-1.6-2.4.6-3.5,1.4-4.8c.7-1.2,1.5-1.7,2.5-1.7h0Z"/>
        <path class="cls-8" d="M29.7,15c-.7.9-.9,1.1-1,1.1,0,0,0,0,0-.1s0,0,.3-1.1l1.1-4.6h-1.3c-.8,2.5-.9,2.6-1.5,3.7-1.1,1.9-1.6,2.1-1.8,2.1s0,0,0,0c0,0,0-.1,0-.2h0c0-.1,1.3-5.6,1.3-5.6h-.2c0-.1,0-.1,0-.1-.7.2-1.2.3-2.1.4h-.1v.5h.1c.3,0,.6,0,.6,0,0,0,0,.1,0,.2,0,0,0,.4-.2,1l-.5,2.1c-.3,1.1-.4,1.6-.4,1.9,0,.8.5,1,.9,1,.9,0,1.6-.6,2.9-2.8-.3,1-.4,1.7-.4,1.9,0,.5.3.9.8.9.7,0,1.1-.4,2-1.8h0c0-.1-.4-.4-.4-.4h0c0,.1,0,.1,0,.1Z"/>
        <path class="cls-7" d="M36.5,15.1c-.1.2-.2.3-.3.3,0,0,0,0,0,.1-.1.2-.5.6-.6.6s0,0,0,0c0-.2.6-2.7,1.3-5.4h0c0-.1,0-.2,0-.3h0c0-.1-.2-.2-.2-.2h-.9c0,.1-.1.2-.1.2v.3c-.3-.3-.6-.5-1.1-.5-1.9,0-4.1,2.8-4.1,5.3s.6,1.8,1.5,1.8,1.5-.4,2.5-1.8c-.1.6-.2.7-.2,1,0,.5.2.7.7.7.6,0,1-.4,2-1.7h0c0-.1-.4-.5-.4-.5h-.1q0,.1,0,.1ZM32.5,16.1c-.6,0-.7-.7-.7-1,0-.8.5-2.3,1.1-3.2.5-.8,1.1-1.3,1.6-1.2.4,0,.6.3.6.8,0,1.2-.7,3-1.6,4.1-.3.4-.7.6-1.1.6Z"/>
        <path class="cls-6" d="M40.9,6.5c-.8.2-1.3.3-2.1.4h-.1v.5h.4c.4,0,.6.1.6.2s0,.1,0,.2l-1.9,7.9c0,.2,0,.3,0,.4,0,.8.5,1,.8,1,.8,0,1.3-.4,2.2-1.9h0c0-.1-.4-.4-.4-.4h0c-.9,1.3-1,1.4-1.2,1.4s0,0,0-.1,0-.3.1-.5c0,0,0,0,0,0h0c0,0,2.1-8.7,2.1-8.7h0c0,0-.1-.3-.1-.3h-.1,0Z"/>
        <path class="cls-3" d="M43.8,15c-.3.5-.4.6-.6.7-.3.3-.4.4-.5.4s0,0,0,0c0-.2,0-.4.1-.6h0c0,0,0-.2.1-.3l1.3-4.9h-.2c0-.1,0-.1,0-.1-1.4.3-1.7.3-2.2.4h-.1v.5h.1c.2,0,.6,0,.7.1,0,0,0,0,0,.1s0,.3-.1.6l-.7,2.7c-.2.9-.3,1.3-.3,1.7,0,.9.5,1,.8,1,.7,0,1.3-.5,2.1-1.8h0c0-.1-.4-.5-.4-.5h-.1c0,.1,0,.2,0,.2Z"/>
        <path class="cls-4" d="M43.9,6.9c-.5,0-.8.4-.8,1s.3.9.8.9.8-.4.8-.9-.4-1-.8-1Z"/>
        <path class="cls-2" d="M53.8,10.1c-.4,0-.7.3-.7.7s.2.5.5.7c.2.2.3.2.3.4,0,.5-.5,1.6-1.5,3.4l-.2-1.3c-.1-.7-.9-3.9-1.3-3.9h-.2s-.3,0-.8.2h-.6c0,.1,0,.1-.2.2,0,0-.2,0-.3,0h-.1v-.2s-1.1,0-1.1,0l.3-1.4s0-.1,0-.1c0-.2-.1-.3-.2-.3h0c-.1,0-.2.1-.3.2-.5.7-1.3,1.5-1.8,1.6-.3.1-.5.2-.5.5v.2h1l-1,3.9c-.3,1.3-.3,1.4-.3,1.4,0,.4.3.7.8.7.7,0,1.2-.4,2.1-1.9h0c0-.1-.4-.4-.4-.4h0c-.5.8-.8,1.2-1,1.2s0-.1,0-.1h0s1.2-4.9,1.2-4.9h1.2v-.5c0,0,0,.5,0,.5h.2c.2,0,.3-.1.4-.1.4,0,.7.1.9,1,.4,1.2,1,4.2,1,4.8s0,.4-.3.7c-.5.8-.8,1.1-.9,1.1-.3.3-.4.4-.5.4s-.1,0-.2-.1c-.2-.2-.4-.3-.6-.3-.4,0-.7.3-.7.7s.3.8.8.8c1.1,0,3-2.7,4.3-5.3.9-1.8,1.4-3,1.4-3.7s-.4-1-.9-1h0Z"/>
        <path class="cls-1" d="M62.4,8.4c.2-.8.3-.9,1-1h.1v-.5h-3.7v.5h.1c.8.1.9.2.9.5s0,.5-.1.9l-1.6,6.6c-.2.8-.3.9-1,1h-.1v.5h3.6v-.5h-.2c-.8-.1-.8-.2-.8-.5s0-.4.1-.9l1.6-6.6h0Z"/>
        <path class="cls-5" d="M67.1,10.1c0,.2-.1.2-.3.2s-.2,0-.4-.1c-.3-.1-.6-.2-.8-.2-1.1,0-1.8.7-1.8,1.8s.3,1.2.9,2c.5.7.7,1.2.7,1.6,0,.6-.3,1-.9,1s-1-.2-1.2-1.9h0c0-.1-.5-.1-.5-.1l-.3,2.7h.5c.1-.3.2-.3.2-.3.2,0,.4,0,.6.1.3.1.5.2.8.2,1.2,0,2.1-.9,2.1-2.1s-.3-1.3-.9-2.2c-.5-.7-.7-1.1-.7-1.5s.2-.7.6-.7,1,.2,1.1,1.6h0c0,.1.5.1.5.1l.3-2.4h-.5q0,0,0,0Z"/>
        <path class="cls-11" d="M77.6,6.7c-1.2,0-2.5.6-3.6,1.7-1.4,1.4-2.2,3.2-2.2,5s1.3,3.8,3.2,3.8c2.9,0,5.7-3.1,5.8-6.6,0-1.2-.3-2.2-1-2.9-.6-.6-1.4-1-2.2-1ZM75.3,16.5c-1.1,0-1.7-.9-1.7-2.4s.6-3.5,1.4-4.8c.7-1.2,1.5-1.7,2.5-1.7s1.6.8,1.6,2.2-.6,3.7-1.5,5.1c-.7,1.1-1.5,1.7-2.4,1.7Z"/>
        <path class="cls-12" d="M87.1,15c-.7.9-.9,1.1-1,1.1,0,0,0,0,0-.1s0,0,.3-1.1l1.1-4.6h-1.3c-.8,2.5-.9,2.6-1.5,3.7-1.1,1.9-1.6,2.1-1.8,2.1s0,0,0,0c0,0,0-.1,0-.2h0c0-.1,1.3-5.5,1.3-5.5h0c0,0-.2-.2-.2-.2h0c-.7.2-1.2.3-2.1.4h-.1v.5h.1c.3,0,.6,0,.6,0,0,0,0,.1,0,.2,0,0,0,.4-.2,1l-.5,2.1c-.3,1.1-.4,1.6-.4,1.9,0,.8.5,1,.9,1,.9,0,1.6-.6,2.9-2.8-.3,1-.4,1.7-.4,1.9,0,.5.3.9.8.9.7,0,1.1-.4,2-1.8h0c0-.1-.4-.4-.4-.4h0c0,.1,0,.1,0,.1Z"/>
        <path class="cls-13" d="M92.8,10.1c-.4,0-.8.2-1.1.7-.3.4-.7.9-1,1.3l.4-1.9h-.2c0-.1-.2,0-.2,0-.9.2-1.1.2-2,.4h-.1v.6h.3c.2,0,.2-.1.3-.1.3,0,.3.2.3.3,0,.2-.1.8-.2,1.2l-1.2,4.5h1.4c.7-2.6,1-3.3,1.6-4.4.7-1.2.9-1.2,1-1.2,0,0,0,0,.1.1.1.3.3.4.6.4.5,0,.8-.3.8-.9s-.3-.9-.8-.9h0Z"/>
        <path class="cls-14" d="M101.7,6.9h-3.5v.5h.1c.8.1.9.2.9.5s0,.3-.2,1.2l-1.6,6.3c-.2.9-.3.9-1,1h-.1v.5h3.7v-.5h-.2c-.8-.1-.8-.2-.8-.6s0-.2.1-.7l.7-2.9c.3,0,.6,0,1.1,0,1.2,0,2.1-.3,2.7-.7.7-.6,1.1-1.4,1.1-2.3,0-1.5-1.1-2.4-3.1-2.4h0ZM100.8,8c0-.2.1-.3.5-.3.5,0,1,.1,1.3.3.3.3.5.7.5,1.4s-.3,1.5-.8,1.9c-.4.3-.9.4-1.7.4s-.3,0-.5,0l.9-3.5h0Z"/>
        <path class="cls-16" d="M109.6,10.1c-.4,0-.8.2-1.1.7-.3.4-.7.9-1,1.3l.4-1.9h-.2c0-.1-.2,0-.2,0-.9.2-1.1.2-2,.4h-.1v.6h.3c.2,0,.2-.1.3-.1.3,0,.3.2.3.3,0,.2-.1.8-.2,1.2l-1.2,4.5h1.4c.7-2.6,1-3.3,1.6-4.4.7-1.2.9-1.2,1-1.2,0,0,0,0,.1.1.1.3.3.4.6.4.5,0,.8-.3.8-.9s-.3-.9-.8-.9h0Z"/>
        <path class="cls-27" d="M112.9,6.9c-.5,0-.8.4-.8,1s.3.9.8.9.8-.4.8-.9-.4-1-.8-1Z"/>
        <path class="cls-28" d="M112.9,15c-.3.5-.4.6-.6.7-.3.3-.4.4-.5.4s0,0,0,0c0-.2,0-.4.1-.6h0c0,0,0-.2.1-.3l1.3-4.9h-.2c0-.1,0-.1,0-.1-1.4.3-1.7.3-2.2.4h-.1v.5h.1c.2,0,.6,0,.7.1,0,0,0,0,0,.1s0,.3-.1.6l-.7,2.7c-.2.9-.3,1.3-.3,1.7,0,.9.5,1,.8,1,.7,0,1.3-.5,2.1-1.8h0c0-.1-.4-.5-.4-.5h-.1c0,.1,0,.2,0,.2Z"/>
        <path class="cls-29" d="M118,10.1c-.6,0-1.2.2-1.8.5-1.5.9-2.5,2.7-2.5,4.3s.8,2.2,2.1,2.2,1.8-.5,2.7-1.3c.9-1,1.5-2.3,1.5-3.5s-.8-2.2-2.1-2.2ZM116.1,16.5c-.5,0-.9-.5-.9-1.2,0-1.1.4-2.4,1.1-3.4h0c.5-.8,1-1.2,1.6-1.2s.8.5.8,1.2-.5,2.5-1.1,3.5c-.5.7-1,1.1-1.5,1.1h0Z"/>
        <path class="cls-30" d="M125.4,10.1c-.4,0-.8.2-1.1.7-.3.4-.7.9-1,1.3l.4-1.9h-.2c0-.1-.2,0-.2,0-.9.2-1.1.2-2,.4h-.1v.6h.3c.2,0,.2-.1.3-.1.3,0,.3.2.3.3,0,.2-.1.8-.2,1.2l-1.2,4.5h1.4c.7-2.6,1-3.3,1.6-4.4.7-1.2.9-1.2,1-1.2,0,0,0,0,.1.1.1.3.3.4.6.4.5,0,.8-.3.8-.9s-.3-.9-.8-.9h0Z"/>
        <path class="cls-15" d="M128.8,6.9c-.5,0-.8.4-.8,1s.3.9.8.9.8-.4.8-.9-.4-1-.8-1h0Z"/>
        <path class="cls-18" d="M128.7,15c-.3.5-.4.6-.6.7-.3.3-.4.4-.5.4s0,0,0,0c0-.2,0-.4.1-.6h0c0,0,0-.2.1-.3l1.3-4.9h-.2c0-.1,0-.1,0-.1-1.4.3-1.7.3-2.2.4h-.1v.5h.1c.2,0,.6,0,.7.1,0,0,0,0,0,.1s0,.3-.1.6l-.7,2.7c-.2.9-.3,1.3-.3,1.7,0,.9.5,1,.8,1,.7,0,1.3-.5,2.1-1.8h0c0-.1-.4-.5-.4-.5h-.1c0,.1,0,.2,0,.2Z"/>
        <path class="cls-17" d="M138.7,10.1c-.4,0-.7.3-.7.7s.2.5.5.7c.2.2.3.2.3.4,0,.5-.5,1.6-1.5,3.4l-.2-1.3c-.1-.7-.9-3.9-1.3-3.9h-.2s-.3,0-.8.2h-.6c0,.1,0,.1-.2.2,0,0-.2,0-.3,0h-.1v-.2s-1.1,0-1.1,0l.3-1.4s0-.1,0-.1c0-.2-.1-.3-.2-.3h0c-.1,0-.2.1-.3.2-.5.7-1.3,1.5-1.8,1.6-.3.1-.5.2-.5.5v.2h1l-1,3.9c-.3,1.3-.3,1.4-.3,1.4,0,.4.3.7.8.7.7,0,1.2-.4,2.1-1.9h0c0-.1-.4-.4-.4-.4h0c-.5.8-.8,1.2-1,1.2s0-.1,0-.1h0s1.2-4.9,1.2-4.9h1.2v-.5c0,0,0,.5,0,.5h.2c.2,0,.3-.1.4-.1.4,0,.7.1.9,1,.4,1.2,1,4.2,1,4.8s0,.4-.3.7c-.5.8-.8,1.1-.9,1.1-.3.3-.4.4-.5.4s-.1,0-.2-.1c-.2-.2-.4-.3-.6-.3-.4,0-.7.3-.7.7s.3.8.8.8c1.1,0,3-2.7,4.3-5.3.9-1.8,1.4-3,1.4-3.7s-.4-1-.9-1h0Z"/>
      </g>
      <g>
        <g class="cls-38">
          <path class="cls-19" d="M90.6,39.7l-3.5,11.8h6.7l2.1-7.7c.3-1.3.6-2.4.9-3.3.2-1,.4-1.9.6-2.7-1.1-2.4-5.9-.9-6.8,2h0Z"/>
          <path class="cls-20" d="M110,39.8c.2-.4.5-.8.7-1.3-.3.4-.6.8-.7,1.3Z"/>
          <path class="cls-35" d="M116.5,43.1c-2.2.3-3.8,1.5-4.7,2.3.7-.3,1.9-.7,3.3-.5,3.7.3,5.7,3.7,5.9,4.1h6c-2.5-4.1-6.6-6.5-10.6-5.9h0Z"/>
          <path class="cls-22" d="M149.1,43.8h-15.1c-1.1,0-1.9-.3-2.5-.9-.5-.5-.7-1.1-.8-1.8.2,4.8,3.1,9.8,6.4,10.5h11.4l1.6-2.8s0,0,0-.1l-1-4.8Z"/>
          <path class="cls-36" d="M127,44.9c.5,1.4,1.2,2.5,2.1,3.5s2.1,1.7,3.4,2.3c1.3.6,2.9.8,4.6.8h2.5c-3.3-.7-6.2-5.6-6.4-10.5,0-.2,0-.4,0-.6,0-1,.3-1.9.9-2.5.6-.6,1.4-.9,2.5-.9h13.6l-1.6-7.6h-11.4c-1.7,0-3.3.3-4.6.8-1.3.5-2.5,1.3-3.4,2.2s-1.6,2.1-2.1,3.4c-.5,1.3-.7,2.9-.7,4.5s.2,3.2.7,4.5h0Z"/>
          <path class="cls-34" d="M122.3,32c-.3-1-.8-1.8-1.5-2.3s-1.5-.7-2.3-.7-1.7.2-2.3.6-1.1,1-1.5,1.7l-3.5,6.3c-.2.3-.3.6-.5.9,1.8-2,5.8-2.8,6.8-.8,0,0,0,0,0,0,.2.9.4,1.8.6,2.8.2,1,.5,2.1.9,3.3l2.1,7.7h6.8l-5.6-19.5h0Z"/>
          <path class="cls-21" d="M110.7,38.5c-.3.5-.5.9-.7,1.3h0s0,0,0,.1c-.4.6-.7,1.2-1,1.7s-.5,1-.7,1.4c-.2.4-.4.8-.6,1.2-.2-.4-.4-.8-.6-1.2-.2-.4-.4-.9-.7-1.4-.3-.5-.6-1.1-1-1.7s-.8-1.4-1.3-2.3l-3.5-6.3c-.4-.7-.9-1.3-1.5-1.7-.6-.4-1.3-.6-2.2-.6s-1.6.2-2.4.7c-.7.5-1.2,1.3-1.5,2.3l-2.3,7.7c.9-2.9,5.7-4.4,6.8-2h0c.2.4.4.7.5,1.1s.4.8.7,1.3c.3.5.5,1,.8,1.6.3.6.7,1.3,1.1,2l3,5.6c.3.6.6,1,.9,1.3.3.3.6.6.9.7.3.2.6.3,1,.3.4,0,.7,0,1.2,0s.8,0,1.2,0c.4,0,.7-.2,1-.3.3-.2.6-.4.9-.7.3-.3.6-.8.9-1.3l3-5.6c.7-1.4,1.4-2.6,1.8-3.6.5-.9.9-1.8,1.2-2.5-1-2.1-5-1.3-6.8.8h0Z"/>
        </g>
        <g>
          <g>
            <path class="cls-39" d="M88.1,36.7c-.6.4-.8.6-1,1-.3.6-.4,1.5-.4,2.8s.1,2.1.4,2.7c.2.4.4.6,1,1v.3c-.9-.6-1.3-.9-1.7-1.6-.4-.7-.7-1.5-.7-2.4s.4-2.3,1.2-3.1c.4-.4.6-.6,1.2-.9,0,0,0,.3,0,.3Z"/>
            <path class="cls-39" d="M93.1,43.9h-4.5v-.2c1.6-1.7,1.9-2.1,2.5-3,.3-.5.5-1.1.5-1.6s0-.5-.2-.8c-.2-.4-.6-.6-1.1-.6s-1,.3-1.3,1h-.3c.3-.8.5-1.2.9-1.6.4-.4.9-.6,1.4-.6,1.2,0,2,.8,2,2s-.4,1.6-1.2,2.4l-1.7,1.7h1.6c1.1,0,1.2,0,1.5-.8h.3l-.5,2.3h0Z"/>
            <path class="cls-39" d="M98.9,40.2c0,2.2-1,3.8-2.4,3.8s-2.4-1.6-2.4-3.8.2-1.9.6-2.5c.4-.8,1.1-1.3,1.9-1.3,1.4,0,2.4,1.6,2.4,3.8ZM97.2,39c0-1.6-.2-2.3-.7-2.3s-.7.6-.7,2.3v2.5c0,1.6.2,2.2.7,2.2s.4-.2.5-.5c.1-.3.2-1.1.2-1.8v-2.5h0Z"/>
            <path class="cls-39" d="M103.5,43.9h-4v-.3c1.1,0,1.3-.2,1.3-1.1v-4.2c0-.5-.1-.7-.4-.7s-.4,0-.7.2c0,0-.1,0-.2,0v-.3l2.7-1.2h.2v6.1c0,.8.2,1,1.1,1v.3h0Z"/>
            <path class="cls-39" d="M104,44.2c.6-.4.8-.6,1-1,.3-.6.4-1.5.4-2.8s-.1-2.1-.4-2.7c-.2-.4-.4-.7-1-1v-.3c.9.6,1.3.9,1.7,1.6.4.7.7,1.5.7,2.4s-.4,2.3-1.2,3.1c-.4.4-.6.6-1.2.9,0,0,0-.3,0-.3Z"/>
          </g>
          <path class="cls-39" d="M112.7,43.9h-1l2.1-5.8h-2.2c-.6,0-.9.3-1.1.9h-.3l.5-2.4h4.5l-2.5,7.3h0Z"/>
          <path class="cls-39" d="M116.9,38.8c.9,0,1.2.1,1.6.2,1.2.3,1.9,1.2,1.9,2.3s-1.3,2.6-3,2.6-1.6-.4-1.6-.9.3-.6.7-.6.6.1,1.1.5c.4.3.7.4,1,.4.6,0,1.1-.5,1.1-1.1s-.6-1.3-1.5-1.6c-.5-.2-.9-.2-1.9-.3l1-3.7h3.5l-.5,1.4h-3l-.2.9h0Z"/>
          <path class="cls-39" d="M122.4,38.8c.9,0,1.2.1,1.6.2,1.2.3,1.9,1.2,1.9,2.3s-1.3,2.6-3,2.6-1.6-.4-1.6-.9.3-.6.7-.6.6.1,1.1.5c.4.3.7.4,1,.4.6,0,1.1-.5,1.1-1.1s-.6-1.3-1.5-1.6c-.5-.2-.9-.2-1.9-.3l1-3.7h3.5l-.5,1.4h-3l-.2.9h0Z"/>
          <path class="cls-39" d="M129.5,42h-2.6v-1.3h2.6v1.3Z"/>
          <path class="cls-39" d="M132.7,43.9h-1l2.1-5.8h-2.2c-.6,0-.9.3-1.1.9h-.3l.5-2.4h4.5l-2.5,7.3h0Z"/>
          <path class="cls-39" d="M136,38.3c0-1.1,1-1.9,2.4-1.9s2.1.6,2.1,1.6-.4,1.1-1.5,1.5c1.1.7,1.6,1.4,1.6,2.3s-1,2.2-2.5,2.2-2.3-.7-2.3-1.8.2-.9.5-1.2c.3-.3.5-.4,1.1-.6-1.1-.6-1.5-1.2-1.5-2h0ZM137.2,42.1c0,1,.4,1.5,1,1.5s.9-.4.9-1.2-.3-1.1-1.4-1.9c-.4.6-.5,1-.5,1.6h0ZM139.2,38.1c0-.8-.3-1.3-.9-1.3s-.9.4-.9.9.5,1.2,1.4,1.7c.3-.5.4-.7.4-1.3Z"/>
          <path class="cls-39" d="M141.5,38.1c.6-1.1,1.4-1.6,2.5-1.6s1.7.6,1.7,1.5-.2.9-.9,1.4c.4.2.6.3.8.6.3.4.5.8.5,1.3,0,1.6-1.4,2.8-3.2,2.8s-1.6-.4-1.6-1,.3-.6.7-.6.7.2,1.1.6c.3.3.6.5.8.5.6,0,1.1-.5,1.1-1.3s-.2-1-.5-1.3c-.4-.4-.7-.6-1.6-.9v-.2c1-.3,1.4-.7,1.4-1.4s-.4-1.1-1.1-1.1-.9.2-1.3.9h-.2c0-.1,0-.1,0-.1Z"/>
          <path class="cls-39" d="M151.6,36.7c-1.6.3-2.5,1.2-2.9,2.8.3-.1.6-.2.9-.2,1.2,0,2,.8,2,2.1s-1,2.5-2.3,2.5-2.5-1.2-2.5-3.1.6-2.6,1.8-3.5c.8-.6,1.5-.8,2.9-1v.3h0ZM148.7,39.9c0,0-.1.7-.1,1.3,0,1,.1,1.8.3,2.1.1.2.3.3.6.3.5,0,.6-.3.6-1.6s-.2-2.3-1-2.3-.3,0-.4.1h0Z"/>
        </g>
      </g>
      <g>
        <g class="cls-38">
          <path class="cls-37" d="M5.8,39.7l-3.5,11.8h6.7l2.1-7.7c.3-1.3.6-2.4.9-3.3.2-1,.4-1.9.6-2.7-1.1-2.4-5.9-.9-6.8,2h0Z"/>
          <path class="cls-26" d="M25.1,39.8c.2-.4.5-.8.7-1.3-.3.4-.6.8-.7,1.3Z"/>
          <path class="cls-24" d="M31.6,43.1c-2.2.3-3.8,1.5-4.7,2.3.7-.3,1.9-.7,3.3-.5,3.7.3,5.7,3.7,5.9,4.1h6c-2.5-4.1-6.6-6.5-10.6-5.9h0Z"/>
          <path class="cls-23" d="M64.2,43.8h-15.1c-1.1,0-1.9-.3-2.5-.9-.5-.5-.7-1.1-.8-1.8.2,4.8,3.1,9.8,6.4,10.5h11.4l1.6-2.8s0,0,0-.1l-1-4.8Z"/>
          <path class="cls-25" d="M42.2,44.9c.5,1.4,1.2,2.5,2.1,3.5s2.1,1.7,3.4,2.3c1.3.6,2.9.8,4.6.8h2.5c-3.3-.7-6.2-5.6-6.4-10.5,0-.2,0-.4,0-.6,0-1,.3-1.9.9-2.5.6-.6,1.4-.9,2.5-.9h13.6l-1.6-7.6h-11.4c-1.7,0-3.3.3-4.6.8-1.3.5-2.5,1.3-3.4,2.2s-1.6,2.1-2.1,3.4c-.5,1.3-.7,2.9-.7,4.5s.2,3.2.7,4.5h0Z"/>
          <path class="cls-32" d="M37.5,32c-.3-1-.8-1.8-1.5-2.3s-1.5-.7-2.3-.7-1.7.2-2.3.6-1.1,1-1.5,1.7l-3.5,6.3c-.2.3-.3.6-.5.9,1.8-2,5.8-2.8,6.8-.8,0,0,0,0,0,0,.2.9.4,1.8.6,2.8.2,1,.5,2.1.9,3.3l2.1,7.7h6.8l-5.6-19.5h0Z"/>
          <path class="cls-31" d="M25.8,38.5c-.3.5-.5.9-.7,1.3h0s0,0,0,.1c-.4.6-.7,1.2-1,1.7s-.5,1-.7,1.4c-.2.4-.4.8-.6,1.2-.2-.4-.4-.8-.6-1.2-.2-.4-.4-.9-.7-1.4-.3-.5-.6-1.1-1-1.7s-.8-1.4-1.3-2.3l-3.5-6.3c-.4-.7-.9-1.3-1.5-1.7-.6-.4-1.3-.6-2.2-.6s-1.6.2-2.4.7c-.7.5-1.2,1.3-1.5,2.3l-2.3,7.7c.9-2.9,5.7-4.4,6.8-2h0c.2.4.4.7.5,1.1s.4.8.7,1.3c.3.5.5,1,.8,1.6.3.6.7,1.3,1.1,2l3,5.6c.3.6.6,1,.9,1.3.3.3.6.6.9.7.3.2.6.3,1,.3.4,0,.7,0,1.2,0s.8,0,1.2,0c.4,0,.7-.2,1-.3.3-.2.6-.4.9-.7.3-.3.6-.8.9-1.3l3-5.6c.7-1.4,1.4-2.6,1.8-3.6.5-.9.9-1.8,1.2-2.5-1-2.1-5-1.3-6.8.8h0Z"/>
        </g>
        <g>
          <path class="cls-33" d="M34.4,42.1h0c-.2.2-.2.2-.4.2-.2,0-.4-.2-.6-.5v-.2c.3-.3.4-.5.6-.7.1-.2.2-.3.2-.3,0,0,.1,0,.3-.1h0v-.2h-1.2v.2h0c.2,0,.2,0,.2.2,0,.2,0,.4-.4.8-.2-.3-.3-.8-.5-1.4.3-.2.5-.3.7-.5.2-.2.3-.4.3-.7,0-.4-.3-.7-.7-.7-.6,0-1,.6-1,1.4s0,.2,0,.3h0c0,.1,0,.1,0,.2-.6.3-.8.4-1,.6-.3.3-.4.6-.4.9,0,.6.4,1.1,1.1,1.1s.6,0,1.1-.5c.3.3.5.5.8.5s.5-.1.8-.5h0s-.1-.2-.1-.2h0ZM32.9,38.6c0,0,.2,0,.2.3s-.1.5-.5.8c0-.1,0-.3,0-.4,0-.7.2-.7.3-.7ZM31.9,42.3c-.4,0-.7-.3-.7-.8s.3-.8.8-1.1c.2.7.4,1.2.6,1.5-.2.2-.5.3-.7.3h0Z"/>
          <g>
            <path class="cls-10" d="M6.6,39.3c0-.6-.5-1-1.3-1h-1.5v.2h0c.3,0,.3,0,.3,0,0,0,0,0,0,.1s0,.2,0,.4l-.7,2.8c0,.4-.1.4-.4.4h0v.2h1.6v-.2h0c-.3,0-.3,0-.3-.2s0-.1,0-.3l.3-1.3h.3s.7,2.1.7,2.1h1v-.2h0c-.2,0-.3-.1-.4-.4l-.5-1.5c.4-.1.6-.2.8-.4s.3-.5.3-.8h0ZM4.9,38.8c0,0,0-.1.2-.1.4,0,.7.2.7.7s-.3.9-1,.9-.1,0-.2,0l.4-1.4h0Z"/>
            <path class="cls-10" d="M8.5,41.8c-.4.4-.6.5-.8.5s-.5-.2-.5-.5,0-.2,0-.3h.1c.9-.2,1.6-.7,1.6-1.3s-.2-.5-.5-.5c-.9,0-1.8,1.1-1.8,2.1s.3.9.8.9.9-.3,1.3-.7h0s-.2-.2-.2-.2h0ZM8.3,40c.1,0,.1,0,.1.2,0,.2-.1.4-.3.6-.2.2-.4.3-.8.4v-.2c.3-.6.7-1,.9-1Z"/>
            <path class="cls-10" d="M10.9,39.7c0,0,0,0-.1,0s0,0-.2,0c-.2,0-.2,0-.4,0-.5,0-.8.3-.8.8s.1.5.4.9c.2.3.3.5.3.7,0,.3-.2.4-.4.4s-.4,0-.5-.8h0c0,0-.2,0-.2,0v1.1c-.1,0,0,0,0,0h0c0-.1,0-.1,0-.1,0,0,.2,0,.3,0,.1,0,.2,0,.3,0,.5,0,.9-.4.9-.9s-.1-.5-.4-.9c-.2-.3-.3-.5-.3-.6s.1-.3.3-.3.4,0,.5.7h0c0,0,.2,0,.2,0v-1c.1,0,0,0,0,0h0s0,0,0,0Z"/>
            <path class="cls-10" d="M12.5,41.8c-.1.2-.2.3-.2.3-.1.1-.2.2-.2.2s0,0,0,0c0,0,0-.2,0-.3h0s0-.1,0-.1l.5-2.1h0c0,0,0,0,0,0-.6.1-.7.1-.9.2h0v.2h0c0,0,.3,0,.3,0,0,0,0,0,0,0s0,.1,0,.2l-.3,1.2c-.1.4-.1.6-.1.7,0,.4.2.4.3.4.3,0,.5-.2.9-.8h0s-.2-.2-.2-.2h0Z"/>
            <path class="cls-10" d="M12.6,38.3c-.2,0-.3.2-.3.4s.1.4.3.4.4-.2.4-.4-.2-.4-.3-.4h0Z"/>
            <path class="cls-10" d="M15.5,41.8c-.3.4-.4.4-.4.4s0,0,0,0c0,0,.2-.8.4-1.6.1-.5.3-1.1.6-2.4h0s0-.1,0-.1h0c-.3,0-.5.1-.9.2h0v.2h0c.3,0,.3,0,.3.1s0,0,0,.4l-.2.8c0-.1-.2-.2-.4-.2-.8,0-1.8,1.2-1.8,2.2s.3.8.7.8.6-.2.9-.6c0,.1,0,.2,0,.3,0,.2.1.3.3.3.3,0,.6-.3.9-.8h0s-.2-.2-.2-.2h0c0,0,0,0,0,0ZM13.8,42.3c-.2,0-.3-.1-.3-.4,0-.5.3-1.2.7-1.7h0c.1-.2.3-.3.5-.3h0c0,0,.2,0,.2.3,0,.6-.3,1.3-.7,1.8-.1.2-.3.2-.4.2h0Z"/>
            <path class="cls-10" d="M16.7,41.4c.9-.1,1.6-.6,1.6-1.2s-.2-.5-.5-.5c-.9,0-1.8,1.1-1.8,2.1s.3.9.8.9.9-.3,1.3-.7h0s-.2-.2-.2-.2h0c-.4.4-.6.5-.8.5s-.5-.2-.5-.5,0-.2,0-.3h.1s0,0,0,0ZM16.7,41c.2-.6.6-1,.9-1s.1,0,.1.2c0,.2-.1.4-.3.6-.2.2-.4.3-.8.4,0,0,0-.2,0-.2Z"/>
            <path class="cls-10" d="M21,41.8c-.3.4-.4.5-.4.5s0,0,0,0t0-.4l.3-1.3c0-.2,0-.3,0-.4,0-.3-.2-.4-.4-.4s-.7.3-1.2,1.1l.3-1h0c0,0,0,0,0,0-.3,0-.4.1-.9.2h0v.2h0c.3,0,.3,0,.3.1s0,0,0,0l-.6,2.3h.6c.3-1.1.3-1.2.6-1.6.4-.8.7-.9.8-.9s0,0,0,.1,0,.3,0,.5l-.3,1.1c0,.4-.1.4-.1.5,0,.2,0,.4.3.4s.5-.2.9-.7h0s-.2-.2-.2-.2h0c0,0,0,0,0,0Z"/>
            <path class="cls-10" d="M22.7,39.2s0,0,0,0c0,0,0-.1,0-.1h0c0,0,0,0-.1,0-.2.3-.6.6-.8.7-.1,0-.2.1-.2.2h0c0,.1.4.1.4.1l-.4,1.7c-.1.6-.1.6-.1.6,0,.2.1.3.3.3.3,0,.5-.2.9-.8h0c0,0-.2-.2-.2-.2h0c-.2.3-.4.5-.4.5s0,0,0,0h0s.5-2.1.5-2.1h.5v-.3s-.4,0-.4,0v-.6c.1,0,.2,0,.2,0Z"/>
            <path class="cls-10" d="M24,41.8c-.1.2-.2.3-.2.3-.1.2-.2.2-.2.2,0,0,0,0,0,0,0,0,0-.2,0-.3h0s0-.1,0-.1l.5-2.1h0c0,0,0,0,0,0-.6.1-.7.1-.9.2h0v.2h0c0,0,.3,0,.3,0,0,0,0,0,0,0s0,.1,0,.2l-.3,1.2c-.1.4-.1.6-.1.7,0,.4.2.4.3.4.3,0,.5-.2.9-.8h0s-.2-.2-.2-.2h0Z"/>
            <path class="cls-10" d="M24.1,38.3c-.2,0-.3.2-.3.4s.1.4.3.4.4-.2.4-.4-.2-.4-.3-.4h0Z"/>
            <path class="cls-10" d="M27,41.8c0,0,0,.1-.1.1,0,0,0,0,0,0,0,0-.2.2-.3.2s0,0,0,0c0-.1.2-1.2.5-2.3h0s0,0,0-.1h0s0,0,0,0h-.4c0,0,0,.1,0,.1h0c0,0-.2,0-.4,0-.8,0-1.7,1.2-1.7,2.2s.2.8.6.8.6-.2,1-.7c0,.2,0,.3,0,.4,0,.2,0,.3.3.3s.4-.2.9-.7h0s-.2-.2-.2-.2h0c0,0,0,0,0,0ZM25.3,42.3c-.3,0-.3-.3-.3-.4,0-.3.2-1,.5-1.4.2-.3.5-.5.7-.5.2,0,.3.1.3.3,0,.5-.3,1.3-.7,1.7-.1.2-.3.3-.5.3h0Z"/>
            <path class="cls-10" d="M28.9,38.1c-.4,0-.6.1-.9.2h0v.2h.2c.2,0,.2,0,.2,0s0,0,0,.1l-.8,3.4c0,0,0,.1,0,.2,0,.4.2.4.3.4.3,0,.5-.2.9-.8h0c0,0-.2-.2-.2-.2h0c-.4.6-.4.6-.5.6s0,0,0,0,0-.1,0-.2c0,0,0,0,0,0h0s.9-3.7.9-3.7h0s0-.1,0-.1h0s0,0,0,0Z"/>
            <path class="cls-10" d="M40.3,38.3h-.3c0,.1,0,.1-.2.1s-.1,0-.2,0c-.3,0-.5-.1-.7-.1-1.3,0-2.4,1.3-2.4,2.7s.7,1.7,1.6,1.7,1.1-.3,1.6-1h0s-.2-.2-.2-.2h0c-.5.6-.8.8-1.3.8s-1-.5-1-1.3.3-1.5.7-2c.3-.3.6-.5,1-.5s.8.3.8,1h0s.2,0,.2,0l.2-1.4h0Z"/>
            <path class="cls-10" d="M41.9,39.7c-.3,0-.5,0-.8.2-.6.4-1.1,1.1-1.1,1.8s.3,1,.9,1,.8-.2,1.2-.6c.4-.4.6-1,.6-1.5s-.4-1-.9-1h0ZM41.8,39.9c.2,0,.3.2.3.5s-.2,1.1-.5,1.5c-.2.3-.4.5-.6.5s-.4-.2-.4-.5c0-.5.2-1,.5-1.5h0c.2-.3.4-.5.7-.5Z"/>
            <path class="cls-10" d="M46.9,41.7h0q-.4.5-.5.5h0s0,0,0-.3l.4-1.6s0-.2,0-.2c0-.3-.2-.5-.4-.5s-.3,0-.4.2c-.2.2-.4.4-.7.8,0-.3.1-.5.1-.5,0-.3-.2-.4-.4-.4-.3,0-.7.3-1.2,1l.3-1h0c0,0,0,0,0,0,0,0-.2,0-.2,0-.2,0-.3,0-.7.1h0v.2h0c.2,0,.3,0,.3,0h0s0,0,0,0c0,0,0,.2-.4,1.5-.1.5-.2.6-.2.8v.2s.5,0,.5,0h0c.3-1.1.4-1.3.6-1.6.4-.6.7-.9.8-.9s0,0,0,0-.2.8-.4,1.7c0,.2,0,.2-.1.4v.2c0,0,.5,0,.5,0h0c.2-1,.4-1.3.6-1.8.3-.5.6-.7.7-.7s0,0,0,0,0,0,0,.2l-.3,1.5c0,.3,0,.4,0,.4,0,.2.1.3.3.3.3,0,.6-.2.9-.7h0c0,0-.2-.3-.2-.3h0Z"/>
            <path class="cls-10" d="M51,41.8c-.2.3-.4.5-.5.5,0,0,0,0,0,0s0,0,0-.3l.4-1.6s0-.2,0-.2c0-.3-.2-.5-.4-.5s-.3,0-.4.2c-.2.2-.4.4-.7.8,0-.3.1-.5.1-.5,0-.3-.2-.4-.4-.4-.3,0-.7.3-1.2,1l.3-1h0c0,0,0,0,0,0,0,0-.2,0-.2,0-.2,0-.3,0-.7.1h0v.2h0c.2,0,.3,0,.3,0h0s0,0,0,0c0,0,0,.2-.4,1.5-.1.5-.2.6-.2.8v.2s.5,0,.5,0h0c.3-1.1.4-1.3.6-1.6.4-.6.7-.9.8-.9s0,0,0,0-.2.8-.4,1.7c0,.2,0,.2-.1.4v.2c0,0,.5,0,.5,0h0c.2-1,.4-1.3.6-1.8.3-.5.6-.7.7-.7s0,0,0,0,0,0,0,.2l-.3,1.5c0,.3,0,.4,0,.4,0,.2.1.3.3.3.3,0,.6-.2.9-.7h0c0,0-.2-.3-.2-.3h0c0,0,0,0,0,0Z"/>
            <path class="cls-10" d="M52.1,41.4c.9-.1,1.6-.6,1.6-1.2s-.2-.5-.5-.5c-.9,0-1.8,1.1-1.8,2.1s.3.9.8.9.9-.3,1.3-.7h0s-.2-.2-.2-.2h0c-.4.4-.6.5-.8.5s-.5-.2-.5-.5,0-.2,0-.3h.1s0,0,0,0ZM52.2,41c.2-.6.6-1,.9-1s.1,0,.1.2c0,.2-.1.4-.3.6-.2.2-.4.3-.8.4,0,0,0-.2,0-.2Z"/>
            <path class="cls-10" d="M56.3,40.1c0-.2-.1-.4-.3-.4s-.3.1-.5.3c-.1.2-.3.4-.4.6l.2-.8h0c0,0,0,0,0,0-.4,0-.5,0-.9.2h0v.2h.1c0,0,.1,0,.1,0,.1,0,.1,0,.1.1,0,0,0,.3,0,.5l-.5,1.9h.6c.3-1.1.4-1.4.7-1.9.3-.5.4-.5.4-.5,0,0,0,0,0,0,0,.1.1.2.3.2.2,0,.3-.1.3-.4h0Z"/>
            <path class="cls-10" d="M57.8,39.7c-.9,0-1.8,1-1.8,2s.3,1,.9,1,.8-.2,1.2-.7h0c0,0-.2-.2-.2-.2h0c-.3.4-.5.5-.8.5s-.5-.2-.5-.7.2-1.1.5-1.5c.2-.2.4-.3.6-.3s.2,0,.2,0,0,0,0,0c0,0,0,.1,0,.2,0,.2.1.3.3.3s.3-.2.3-.4c0-.3-.3-.6-.7-.6h0Z"/>
            <path class="cls-10" d="M59.7,38.3c-.2,0-.3.2-.3.4s.1.4.3.4.4-.2.4-.4-.2-.4-.3-.4h0Z"/>
            <path class="cls-10" d="M59.7,41.8c-.1.2-.2.3-.2.3-.1.2-.2.2-.2.2,0,0,0,0,0,0,0,0,0-.2,0-.3h0s0-.1,0-.1l.5-2.1h0c0,0,0,0,0,0-.6.1-.7.1-.9.2h0v.2h0c0,0,.3,0,.3,0,0,0,0,0,0,0s0,.1,0,.2l-.3,1.2c-.1.4-.1.6-.1.7,0,.4.2.4.3.4.3,0,.5-.2.9-.8h0s-.2-.2-.2-.2h0Z"/>
            <path class="cls-10" d="M62.7,41.8c0,0,0,.1-.1.1,0,0,0,0,0,0,0,0-.2.2-.3.2s0,0,0,0c0-.1.2-1.2.5-2.3h0s0,0,0-.1h0s0,0,0,0h-.4c0,0,0,.1,0,.1h0c0,0-.2,0-.4,0-.8,0-1.7,1.2-1.7,2.2s.2.8.6.8.6-.2,1-.7c0,.2,0,.3,0,.4,0,.2,0,.3.3.3s.4-.2.9-.7h0s-.2-.2-.2-.2h0c0,0,0,0,0,0ZM61,42.3c-.3,0-.3-.3-.3-.4,0-.3.2-1,.5-1.4.2-.3.5-.5.7-.5.2,0,.3.1.3.3,0,.5-.3,1.3-.7,1.7-.1.2-.3.3-.5.3h0Z"/>
            <path class="cls-10" d="M64.2,41.7c-.4.5-.4.6-.5.6s0,0,0,0,0-.1,0-.2c0,0,0,0,0,0h0s.9-3.8.9-3.8h0c0,0,0,0,0,0-.4,0-.6.1-.9.2h0v.2h.2c.2,0,.2,0,.2,0s0,0,0,.1l-.8,3.4c0,0,0,.1,0,.2,0,.4.2.4.3.4.3,0,.5-.2.9-.8h0c0,0-.2-.2-.2-.2h0c0,0,0,0,0,0Z"/>
          </g>
        </g>
      </g>
    </g>
  </g>
</svg>